<?xml version="1.0" encoding="utf-8"?>
<!-- Generator: Adobe Illustrator 16.0.0, SVG Export Plug-In . SVG Version: 6.00 Build 0)  -->
<!DOCTYPE svg PUBLIC "-//W3C//DTD SVG 1.1//EN" "http://www.w3.org/Graphics/SVG/1.1/DTD/svg11.dtd">
<svg version="1.1" id="Layer_1" xmlns="http://www.w3.org/2000/svg" xmlns:xlink="http://www.w3.org/1999/xlink" x="0px" y="0px"
	 width="248.573px" height="294.352px" viewBox="3268.562 2360.867 248.573 330.352"
	 enable-background="new 3268.562 2376.867 248.573 294.352" xml:space="preserve">
<g>
	<path fill="#FFFFFF" d="M3290.588,2667.412c-2.472,0-4.595-1.096-5.755-2.125c-2.189-1.953-8.418-7.359-9.588-8.191
		c-2.779-2.047-3.611-6.139-2.207-10.709c8.209-26.904,16.562-53.757,24.842-79.795c-1.643-1.707-4.557-4.736-6.411-6.6
		c-1.745-1.75-2.194-3.828-1.323-6.174c0.449-1.139,0.955-2.146,1.537-3.123c0.441-0.747,0.908-1.438,1.412-2.091
		c-0.47-0.628-0.9-1.554-0.9-2.851c0.074-2.371,1.197-44.451,1.197-44.451c0.445-14.729,0.918-29.478,1.457-44.188
		c0.346-7.604,5.195-14.451,11.807-16.683c2.205-0.737,17.418-6.062,28.963-10.099l13.029-4.557
		c14.314-4.948,28.65-9.881,43.016-14.736c14.618-4.982,29.27-9.89,43.924-14.774c14.988-4.989,29.955-9.926,44.945-14.834
		c1.531-0.502,3.066-0.76,4.551-0.76c1.686,0,3.3,0.333,4.807,0.99c0.068,0.033,2.911,1.335,3.965,1.685
		c5.448,1.754,8.391,5.679,8.719,11.644c0.203,3.577,0.816,18.222,1.346,30.663l0.213,5.277c0.541,12.701,2.107,57.105,2.242,61.035
		c0.007,1.891-0.863,3.389-2.383,4.225l-0.467,0.379l-0.99,0.585c3.773,6.468,8.504,14.527,9.223,15.599
		c1.38,2.018,1.867,4.42,1.404,6.945c-0.801,4.496-5.145,28.803-9.302,51.253c-3.603,19.392-7.08,37.37-7.52,39.644
		c-1.118,5.773-6.657,11.354-12.882,12.982c-5.529,1.438-58.556,14.92-103.486,25.254c-28.816,6.646-81.848,17.244-87.803,18.432
		C3291.62,2667.365,3291.101,2667.412,3290.588,2667.412z"/>
	<path fill="#414042" d="M3485.081,2376.867c-1.882,0-3.814,0.326-5.738,0.956c-14.99,4.901-29.964,9.845-44.949,14.832
		c-14.676,4.89-29.326,9.805-43.969,14.792c-14.352,4.851-28.7,9.787-43.021,14.734c-1.288,0.452-6.594,2.304-13.04,4.564
		c-11.293,3.942-26.758,9.353-28.908,10.082c-8.076,2.722-13.989,10.978-14.405,20.082c-0.54,14.787-1.013,29.545-1.457,44.273
		l-0.427,15.934c-0.318,11.814-0.703,26.158-0.771,28.402c0,0.939,0.127,1.834,0.369,2.662l-0.381,0.623
		c-0.674,1.127-1.26,2.305-1.746,3.537c-1.938,5.219,0.523,8.721,2.154,10.342c1.328,1.344,3.217,3.289,4.78,4.906
		c-8.058,25.395-16.185,51.51-24.176,77.692c-1.884,6.147-0.524,11.853,3.558,14.847c1.088,0.799,6.826,5.76,9.334,7.988
		c2.199,1.953,5.292,3.102,8.3,3.102c0.772,0,1.544-0.073,2.294-0.219c5.992-1.193,59.078-11.809,87.945-18.465
		c44.975-10.346,98.053-23.832,103.588-25.279c7.676-2.004,14.258-8.711,15.66-15.939c0.441-2.27,3.92-20.261,7.525-39.669
		c4.164-22.463,8.502-46.786,9.209-50.745l0.092-0.529c0.646-3.523-0.051-6.907-2.004-9.77c-0.568-0.85-3.746-6.238-7.32-12.355
		c1.662-1.562,2.604-3.742,2.604-6.148c-0.018-0.734-1.678-47.942-2.246-61.33l-0.217-5.273
		c-0.537-12.701-1.141-27.094-1.346-30.727c-0.414-7.469-4.449-12.816-11.372-15.05c-0.407-0.137-2.061-0.846-3.487-1.491
		C3489.429,2377.313,3487.302,2376.867,3485.081,2376.867 M3485.081,2384.479c1.1,0,2.205,0.2,3.283,0.668
		c0,0,3.142,1.429,4.303,1.811c4.035,1.304,5.879,4.007,6.111,8.245c0.234,4.098,1.006,22.706,1.561,35.888
		c0.533,12.701,2.102,57.089,2.236,61.01l-0.422,0.764l-0.867,0.635c-1.326,0.773-2.629,1.52-3.945,2.279
		c0,0,10.025,17.275,11.271,19.105c0.768,1.135,1.107,2.504,0.809,4.139c-0.111,0.635-4.809,27.02-9.303,51.24
		c-3.6,19.373-7.072,37.348-7.514,39.609c-0.812,4.223-5.201,8.742-10.109,10.025c-4.926,1.289-57.943,14.779-103.374,25.229
		c-29.688,6.843-85.965,18.063-87.714,18.409l-0.819,0.081c-1.417,0-2.684-0.683-3.235-1.174c-1.914-1.706-8.47-7.424-9.889-8.438
		c-1.41-1.028-1.672-3.618-0.787-6.503c8.213-26.934,16.592-53.85,25.127-80.695l0.203-0.729l0.09-0.658l-0.229-0.174
		c0,0-4.98-5.193-7.701-7.936c-0.83-0.837-0.742-1.4-0.456-2.172c0.345-0.862,0.757-1.686,1.235-2.488
		c1.171-1.996,2.581-3.511,4.341-4.676c0,0-1.333-1.492-2.714-1.492l-0.141,0.004h-0.01c-0.066,0-0.424-0.025-0.424-0.73
		c0.111-3.741,1.096-40.731,1.199-44.341c0.441-14.715,0.914-29.456,1.453-44.162c0.273-6.05,4.182-11.506,9.223-13.208
		c3.428-1.156,38.426-13.432,42.016-14.673c14.307-4.949,28.635-9.872,42.986-14.724c14.625-4.977,29.264-9.89,43.914-14.774
		c14.984-4.983,29.938-9.92,44.929-14.815C3482.8,2384.696,3483.935,2384.479,3485.081,2384.479"/>
	<path fill="#FFFFFF" d="M3321.708,2638.357c35.076-8.127,68.324-16.037,103.301-24.57c1.615-0.426,2.527-1.117,2.938-2.842
		l19.698-85.504c0.222-0.926-0.853-0.631-0.853-0.631l-101.281,28.303c0,0-0.871,0.235-1.131,1.098l-24.291,82.453
		C3319.813,2637.525,3320.142,2638.678,3321.708,2638.357"/>
	<path fill="#414042" d="M3321.708,2638.357l0.463,1.997c35.08-8.132,68.338-16.038,103.322-24.575l0.041-0.017
		c0.966-0.257,1.943-0.64,2.779-1.399c0.838-0.756,1.369-1.818,1.621-2.939l0.004-0.018l19.701-85.508v0.013l0.082-0.69
		c0.059-0.713-0.451-1.725-1.125-2.096c-0.643-0.393-1.129-0.396-1.462-0.41l-0.884,0.115l-0.01,0.01l-101.281,28.303l0.551,1.971
		l-0.534-1.975l-1.069,0.494c-0.512,0.334-1.188,0.982-1.488,2.002l-0.004,0.004l-24.291,82.445l1.965,0.58l-1.955-0.619
		l-0.182,1.166c0,0.674,0.176,1.48,0.779,2.176c0.598,0.717,1.596,1.1,2.479,1.074l0.909-0.098l0.052-0.009L3321.708,2638.357
		l-0.408-2.005l-0.09,0.013v0.875l0.608-0.537l-0.608-0.338v0.875l0.608-0.537l-0.583,0.508h0.812l-0.229-0.508l-0.583,0.508h0.812
		h-0.229l0.218,0.076l0.012-0.076h-0.229l0.218,0.076l0.018-0.043l24.295-82.457v0.008l-0.425-0.123l0.251,0.375l0.174-0.252
		l-0.425-0.123l0.251,0.375l-0.244-0.375l0.11,0.426l0.134-0.051l-0.244-0.375l0.11,0.426l0.023-0.008l101.274-28.309l-0.01,0.004
		l-0.194-0.707v0.742l0.194-0.035l-0.194-0.707v0.742v-1.4l-0.737,1.166l0.737,0.234v-1.4l-0.737,1.166l0.867-1.365h-1.639
		l0.771,1.365l0.867-1.365h-1.639h1.059l-1.03-0.248l-0.028,0.248h1.059l-1.03-0.248v0.013l-19.702,85.504l0.004-0.017
		c-0.154,0.598-0.288,0.746-0.41,0.865c-0.129,0.125-0.416,0.303-1.064,0.47l0.527,1.979l-0.486-1.988
		c-34.971,8.533-68.207,16.443-103.273,24.566L3321.708,2638.357l-0.408-2.005L3321.708,2638.357z"/>
	<path fill="#FFFFFF" d="M3459.401,2544.471c1.588,1.895,0.461,5.457-2.528,7.939c-2.974,2.487-6.671,2.953-8.255,1.059
		c-1.586-1.908-0.471-5.471,2.51-7.949C3454.11,2543.027,3457.813,2542.559,3459.401,2544.471"/>
	<path fill="#414042" d="M3459.401,2544.471l-1.568,1.318l0.238,0.822c0.041,0.973-0.789,2.834-2.51,4.229
		c-1.424,1.199-3.049,1.767-4.096,1.75c-0.76-0.014-1.102-0.219-1.273-0.436l-0.248-0.84c-0.039-0.99,0.789-2.834,2.492-4.229
		c1.422-1.199,3.047-1.758,4.102-1.741c0.766,0.009,1.107,0.226,1.289,0.439l0.006,0.005L3459.401,2544.471l1.576-1.311
		c-1.139-1.369-2.836-1.924-4.439-1.916c-2.287,0.018-4.65,0.986-6.723,2.697c-2.416,2.047-3.929,4.663-3.967,7.373
		c-0.006,1.197,0.357,2.461,1.194,3.468c1.14,1.36,2.825,1.907,4.423,1.894c2.289-0.008,4.652-0.98,6.723-2.695
		c2.422-2.049,3.943-4.659,3.983-7.369c0.007-1.198-0.362-2.461-1.206-3.463l0.012,0.012L3459.401,2544.471z"/>
	<path fill="#414042" d="M3475.46,2494.953l-39.13,11.277c-28.942,8.549-57.933,16.92-86.97,25.116l-35.25,10.111l-0.238,0.427
		l-0.732,1.027c-2.375,0.756-4.75,1.498-7.127,2.254c-2.625,0.836-5.227,1.762-6.721,2.811c0,0-1.43-1.6-2.861-1.484
		c0,0-0.434,0.035-0.434-0.733c0.115-3.746,1.1-40.731,1.199-44.341c0.438-14.725,0.911-29.461,1.451-44.162
		c0.275-6.055,4.184-11.516,9.219-13.218c3.432-1.144,38.436-13.427,42.021-14.668c14.305-4.949,28.639-9.868,42.99-14.724
		c14.628-4.983,29.266-9.89,43.915-14.774c14.978-4.983,30.647-10.188,45.628-15.097c1.529-0.502,3.166-0.732,4.775-0.446
		c3.195,1.093,4.881,4.132,5.071,7.479c0.804,18.027,1.536,36.047,2.171,54.072c0.195,5.956,1.168,36.381,1.347,42.303l0.69,0.033
		c2.887-0.008,4.205,1.625,5.779,3.303l0.324,0.584l-0.424,0.768l-0.871,0.627c-1.322,0.764-2.48,1.469-3.791,2.236l-0.721-0.918
		c-2.109-3.686-3.734-3.693-8.545-2.836l-11.738,3.066C3475.214,2495.871,3475.319,2494.988,3475.46,2494.953"/>
	<path fill="#414042" d="M3475.46,2494.953l-0.082-0.277l-39.123,11.273c-28.949,8.545-57.939,16.924-86.971,25.115l-35.256,10.111
		l-0.174,0.137l-0.234,0.41l-0.719,1.02l0.238,0.17l-0.089-0.276c-2.38,0.755-4.751,1.497-7.128,2.249
		c-2.637,0.836-5.247,1.762-6.801,2.854l0.17,0.238l0.215-0.199c-0.027-0.014-1.35-1.554-2.936-1.588l-0.166,0.004l0.01,0.137
		v-0.137h-0.004l0.004,0.137v-0.137l-0.027-0.021l-0.1-0.413h-0.291l0.291,0.013c0.117-3.754,1.094-40.736,1.201-44.35
		c0.439-14.715,0.912-29.451,1.45-44.154c0.269-5.942,4.119-11.306,9.028-12.952c3.428-1.151,38.426-13.431,42.014-14.672
		c14.303-4.945,28.639-9.873,42.99-14.718c14.628-4.98,29.26-9.89,43.908-14.774c14.984-4.983,30.65-10.182,45.631-15.095
		c1.053-0.35,2.147-0.562,3.242-0.562l1.391,0.126l0.053-0.292l-0.094,0.281c3.055,1.039,4.681,3.947,4.875,7.215
		c0.803,18.021,1.533,36.043,2.172,54.069c0.189,5.951,1.166,36.375,1.344,42.301l0.281,0.286l0.691,0.021h0.01h0.029
		c2.732,0.009,3.947,1.522,5.541,3.217l0.209-0.2l-0.256,0.145l0.246,0.439l-0.314,0.559l-0.814,0.602l0.168,0.234l-0.145-0.251
		c-1.329,0.764-2.485,1.468-3.797,2.235l0.15,0.252l0.229-0.18l-0.721-0.926l-0.229,0.188l0.252-0.148
		c-1.414-2.518-2.797-3.465-4.996-3.447c-1.051,0-2.293,0.195-3.854,0.473h-0.021l-11.739,3.061l-0.09,0.047l-0.676,0.303h-0.018
		l-0.027,0.068l0.062-0.035l-0.035-0.033l-0.027,0.068l0.062-0.035l-0.012,0.01h0.018l-0.006-0.01l-0.012,0.01h0.018v-0.01
		l-0.186-0.08l0.041,0.184l0.145-0.104l-0.186-0.08l0.041,0.184L3475.46,2494.953l-0.082-0.277L3475.46,2494.953l-0.064-0.285
		l-0.311,0.479l0.129,0.361l0.434,0.18l1-0.396l-0.158-0.244l0.068,0.277l11.74-3.066l-0.07-0.277l0.045,0.285
		c1.557-0.277,2.779-0.461,3.756-0.461c2.025,0.021,3.059,0.7,4.488,3.148l0.021,0.043l0.721,0.918l0.381,0.068
		c1.315-0.764,2.469-1.469,3.79-2.232l0.026-0.016l0.871-0.633l0.08-0.094l0.428-0.768v-0.285l-0.322-0.572l-0.039-0.061
		c-1.545-1.65-2.973-3.404-5.969-3.4h-0.035l0.006,0.295l0.012-0.295l-0.691-0.029l-0.011,0.291l0.286-0.01
		c-0.176-5.926-1.146-36.35-1.338-42.306c-0.641-18.025-1.371-36.045-2.172-54.07c-0.193-3.435-1.938-6.604-5.273-7.742
		l-0.038-0.013l-1.497-0.123c-1.172,0-2.33,0.222-3.424,0.575c-14.984,4.909-30.646,10.118-45.631,15.095
		c-14.65,4.886-29.287,9.794-43.914,14.788c-14.359,4.851-28.686,9.771-42.99,14.719c-3.593,1.237-38.598,13.521-42.02,14.66
		c-5.172,1.758-9.131,7.316-9.422,13.489c-0.531,14.699-1.004,29.436-1.451,44.158c-0.096,3.613-1.078,40.604-1.195,44.346v0.009
		l0.275,0.831l0.434,0.188h0.039l0.117-0.009c0.584-0.004,1.223,0.333,1.703,0.699l0.799,0.696l0.381,0.052
		c1.439-1.008,4.025-1.941,6.646-2.77c2.375-0.756,4.75-1.498,7.125-2.252l0.154-0.104l0.73-1.041l0.014-0.025l0.18-0.324
		l35.141-10.068c29.037-8.201,58.027-16.571,86.975-25.121l39.124-11.276l0.198-0.354l-0.346-0.213L3475.46,2494.953z"/>
	<path fill="#414042" d="M3309.443,2552.824l177.071-50.711l7.643,0.127h-0.006l0.01-0.652l-0.211,0.61l0.201,0.042l0.01-0.652
		l-0.211,0.61l0.393-1.147l-1.023,0.64l0.631,0.508l0.393-1.147l-1.023,0.64l0.441-0.272l-0.486,0.199l0.045,0.073l0.441-0.272
		l-0.486,0.199l0.068,0.172l0.1,0.217c1.73,3.191,3.377,6.08,5.449,9.336c0.518,0.822,1.602,1.062,2.418,0.55
		c0.82-0.521,1.064-1.608,0.547-2.423c-2.027-3.195-3.623-5.982-5.331-9.131l-1.542,0.832l1.643-0.614
		c-0.09-0.184-0.135-0.542-0.615-1.093c-0.514-0.566-1.318-0.742-1.791-0.729h-0.007l-7.903-0.133l-0.508,0.068l-177.324,50.779
		c-0.928,0.264-1.475,1.237-1.201,2.172C3307.545,2552.555,3308.515,2553.093,3309.443,2552.824"/>
	<path fill="#FFFFFF" d="M3335.833,2455.639c0.008-0.752,0.248-1.156,0.994-1.408l112.996-37.156l0.775,0.098l0.329,0.679
		l1.731,77.577c0.021,0.832-0.258,1.288-1.09,1.523l-116.029,33.713l-0.568-0.051l-0.396-0.799L3335.833,2455.639z"/>
	<polygon points="3449.421,2554.296 3449.392,2554.369 3449.421,2554.432 3449.485,2554.458 3449.552,2554.432 3449.579,2554.369 
		3449.552,2554.296 3449.485,2554.274 	"/>
	<polygon points="3312.163,2543.891 3312.118,2543.949 3312.136,2544.082 3312.264,2544.064 3312.308,2544.014 3312.298,2543.873 	
		"/>
	<path fill="#414042" d="M3317.863,2560.562l160.585-44.977c0.928-0.26,1.479-1.232,1.217-2.172c-0.264-0.93-1.229-1.48-2.166-1.215
		l-160.582,44.98c-0.932,0.266-1.483,1.229-1.217,2.168C3315.962,2560.277,3316.929,2560.828,3317.863,2560.562"/>
	<path fill="#414042" d="M3308.53,2549.441l-10.027,2.799l-0.43,0.174c-1.129,0.679-3.914,2.326-5.041,3.004
		c-0.838,0.49-1.107,1.562-0.609,2.402c0.492,0.828,1.57,1.105,2.406,0.605c1.121-0.666,3.901-2.309,5.047-2.99l-0.9-1.506
		l0.469,1.693l10.027-2.799c0.938-0.266,1.48-1.229,1.225-2.164C3310.431,2549.727,3309.467,2549.185,3308.53,2549.441"/>
	<polygon points="3315.365,2611.338 3315.339,2611.406 3315.365,2611.479 3315.429,2611.504 3315.493,2611.479 3315.522,2611.406 
		3315.493,2611.338 3315.429,2611.316 	"/>
	<path fill="#414042" d="M3326.604,2571.972c3.516,3.661,1.518,11.229-4.451,16.929c-5.963,5.684-13.627,7.318-17.133,3.666
		c-3.489-3.674-1.501-11.264,4.459-16.943C3315.454,2569.928,3323.113,2568.289,3326.604,2571.972"/>
	<path fill="#414042" d="M3326.604,2571.972l-0.42,0.409c1.045,1.098,1.568,2.586,1.568,4.356c0.011,3.516-2.121,8.042-6.003,11.737
		c-3.716,3.554-8.121,5.457-11.585,5.443c-1.961,0-3.586-0.588-4.715-1.766c-1.05-1.097-1.564-2.598-1.564-4.369
		c-0.01-3.52,2.119-8.047,5.997-11.736c3.723-3.555,8.124-5.467,11.579-5.449c1.961,0,3.588,0.59,4.717,1.775L3326.604,2571.972
		l0.428-0.392c-1.4-1.473-3.381-2.164-5.57-2.16c-3.881,0.005-8.482,2.061-12.383,5.781c-4.064,3.875-6.357,8.605-6.363,12.582
		c0,1.992,0.597,3.827,1.885,5.184c1.398,1.455,3.384,2.129,5.564,2.125c3.877-0.008,8.49-2.053,12.391-5.773
		c4.061-3.881,6.359-8.609,6.366-12.581c0-1.987-0.597-3.823-1.894-5.163L3326.604,2571.972z"/>
	<path fill="#BCBEC0" d="M3323.194,2573.004c2.598,2.714,0.902,8.533-3.78,13.025c-4.674,4.455-10.569,5.884-13.188,3.166
		c-2.597-2.723-0.899-8.55,3.79-13.029C3314.7,2571.707,3320.603,2570.27,3323.194,2573.004"/>
	<path fill="#414042" d="M3323.194,2573.004l-1.48,1.416c0.391,0.414,0.646,1.004,0.65,1.973c0.041,2.061-1.467,5.414-4.365,8.156
		c-2.744,2.646-6.006,4.006-8.093,3.973c-1.104-0.008-1.771-0.299-2.206-0.751c-0.386-0.409-0.635-1.003-0.642-1.962
		c-0.04-2.066,1.468-5.424,4.376-8.162c2.751-2.65,6.02-4.016,8.09-3.98c1.105,0.004,1.763,0.303,2.184,0.746l0.006,0.008
		L3323.194,2573.004l1.486-1.412c-1.365-1.43-3.27-2.035-5.156-2.021c-3.607,0.033-7.531,1.92-10.922,5.119
		c-3.492,3.371-5.598,7.381-5.643,11.119c-0.01,1.723,0.525,3.484,1.789,4.799c1.367,1.426,3.275,2.022,5.157,2.01
		c3.612-0.021,7.536-1.907,10.925-5.107c3.487-3.383,5.586-7.389,5.627-11.117c0.014-1.732-0.525-3.494-1.781-4.809l0.018,0.025
		l-0.014-0.018L3323.194,2573.004z"/>
	<path fill="#414042" d="M3493.341,2492.74l0.82,0.596c0.174,0.27,0.353,0.785,0.353,1.732v0.068l2.048-0.043l-2.048-0.109
		c-0.017,0.57-0.303,1.561-0.665,2.469c-0.363,0.926-0.75,1.707-1.004,2.42c-0.368,1.062,0.205,2.23,1.271,2.594
		c1.072,0.367,2.234-0.195,2.604-1.271c0.076-0.234,0.522-1.203,0.943-2.252c0.42-1.098,0.859-2.355,0.941-3.742l0.006-0.154
		l-1.059,0.021h1.059v-0.021l-1.059,0.021h1.059c0-1.445-0.275-2.768-0.965-3.891c-0.688-1.117-1.785-1.895-2.928-2.291
		c-1.064-0.384-2.241,0.17-2.621,1.242C3491.724,2491.191,3492.274,2492.359,3493.341,2492.74"/>
	<path fill="#FFFFFF" d="M3317.554,2611.031l-6.682,2.116l-0.326-0.333l1.795-7.662l-0.515-0.547l-6.681,1.686l-0.451,0.474
		c0,0-1.299,5.427-1.645,6.937c-0.334,1.52-1.105,1.737-1.809,1.926l-6.99,1.301l-0.592,0.566c-0.162,0.59-2.054,6.656-2.054,6.656
		l0.358,0.375c0,0,5.113-0.883,7.601-1.352c0.589-0.119,0.661,0.166,0.538,0.605c-0.826,2.21-1.691,4.506-2.521,6.707l0.539,0.486
		l6.471-1.63l0.467-0.388l2.516-6.746l0.584-0.934l0.938-0.543l6.679-2.154l0.43-0.426l1.896-6.554L3317.554,2611.031z"/>
	<path fill="#414042" d="M3317.554,2611.031l-0.613-1.954l-6.682,2.116l0.613,1.954l1.451-1.446l-0.335-0.328l-1.442,1.441
		l1.995,0.469l1.796-7.662c0.158-0.674-0.031-1.378-0.512-1.881l-0.514-0.547c-0.515-0.533-1.273-0.755-1.988-0.571l-6.676,1.685
		l-0.977,0.56l-0.45,0.47l-0.522,0.947c0,0-1.291,5.426-1.643,6.953l-0.004,0.031l-0.125,0.361v0.01l0.229,0.174l-0.127-0.256
		l-0.102,0.082l0.229,0.174l-0.127-0.256l-0.318,0.09l0.531,1.98l-0.373-2.015l-6.99,1.306l-1.043,0.525l-0.584,0.562l-0.562,0.934
		c-0.06,0.205-0.584,1.92-1.07,3.494c-0.498,1.592-0.967,3.107-0.967,3.107c-0.229,0.717-0.041,1.502,0.48,2.03l0.361,0.371
		c0.471,0.491,1.146,0.708,1.82,0.597c0.006,0,5.109-0.883,7.631-1.355l0.023-0.005l-0.166-0.811v0.823l0.166-0.013l-0.166-0.811
		v0.823v-1.693l-1.174,1.182l1.174,0.512v-1.693l-1.174,1.182l1.211-1.217h-1.731l0.521,1.217l1.211-1.217h-1.731h0.866l-0.85-0.234
		l-0.017,0.234h0.866l-0.85-0.234l1.979,0.551l-1.92-0.709c-0.826,2.197-1.691,4.498-2.52,6.695
		c-0.295,0.785-0.077,1.676,0.541,2.24l0.538,0.486c0.513,0.455,1.212,0.635,1.876,0.469l6.476-1.63l0.819-0.423l0.465-0.393
		l0.598-0.849l2.439-6.554l0.205-0.32l0.312-0.178l6.477-2.087l0.822-0.508l0.43-0.431l0.508-0.866l1.896-6.554
		c0.201-0.703,0.016-1.463-0.491-1.988l-0.54-0.566c-0.537-0.559-1.356-0.773-2.094-0.538L3317.554,2611.031l-1.475,1.416
		l0.539,0.568l1.482-1.417l-1.977-0.571l-1.746,6.054l-0.059,0.06l1.455,1.438l-0.627-1.949l-6.688,2.154l-0.396,0.18l-0.935,0.541
		l-0.708,0.688l-0.584,0.934l-0.184,0.367l-2.328,6.238l-0.053,0.047l1.318,1.565l-0.498-1.987l-6.477,1.629l0.504,1.988l1.374-1.52
		l-0.54-0.486l-1.373,1.52l1.918,0.721c0.824-2.201,1.697-4.506,2.523-6.715l0.051-0.166l0.128-0.863
		c0.007-0.387-0.104-1.096-0.683-1.685c-0.574-0.571-1.289-0.687-1.717-0.679l-0.643,0.068l0.405,2.006l-0.382-2.006
		c-2.451,0.461-7.561,1.336-7.564,1.336l0.346,2.021l1.475-1.42l-0.363-0.38l-1.47,1.425l1.95,0.61
		c0.01-0.03,1.879-6.021,2.075-6.724l-1.972-0.543l1.412,1.48l0.152-0.145l6.393-1.194l0.16-0.034c0.342-0.09,1.08-0.26,1.82-0.861
		c0.742-0.611,1.232-1.562,1.447-2.607l-1.994-0.432l1.988,0.461c0.352-1.492,1.645-6.92,1.645-6.92l-1.988-0.478l1.475,1.417
		l0.047-0.052l6.107-1.544l-0.497-1.98l-1.485,1.417l0.52,0.542l1.48-1.412l-1.988-0.47l-1.803,7.667
		c-0.162,0.688,0.043,1.408,0.546,1.912l0.331,0.328c0.539,0.545,1.333,0.738,2.064,0.512l6.684-2.117L3317.554,2611.031
		l-1.475,1.416L3317.554,2611.031z"/>
	<path fill="#FFFFFF" d="M3320.829,2637.342c35.068-8.123,68.33-16.02,103.288-24.561c1.626-0.424,2.552-1.131,2.942-2.852
		l19.717-85.486c0.209-0.93-0.863-0.635-0.863-0.635l-101.281,28.303c0,0-0.873,0.234-1.119,1.088l-24.311,82.471
		C3318.935,2636.527,3319.263,2637.691,3320.829,2637.342"/>
	<path fill="#414042" d="M3320.829,2637.342l0.398,1.707c35.072-8.123,68.34-16.02,103.311-24.566l0.023-0.004
		c0.953-0.248,1.889-0.623,2.679-1.348c0.792-0.722,1.288-1.725,1.534-2.82l19.717-85.467v-0.016l0.068-0.602
		c0.043-0.628-0.387-1.516-0.977-1.84c-0.572-0.362-1.018-0.371-1.33-0.379l-0.816,0.115l-101.275,28.299l0.471,1.689l-0.453-1.693
		l-0.988,0.451c-0.475,0.312-1.1,0.905-1.369,1.844l0.006-0.013l-24.309,82.471l1.684,0.499l-1.674-0.529l-0.168,1.076
		c0.006,0.605,0.162,1.326,0.697,1.967c0.531,0.639,1.432,0.998,2.25,0.98l0.888-0.106l0.032-0.009L3320.829,2637.342l-0.376-1.715
		l-0.146,0.018v0.367l0.135-0.324l-0.135-0.043v0.367l0.135-0.324l-0.297,0.695l0.666-0.359l-0.369-0.336l-0.297,0.695l0.666-0.359
		l-0.352,0.193h0.411l-0.06-0.193l-0.352,0.193h0.411l0.005-0.021l0.006-0.031l24.314-82.47v-0.009l-0.252-0.068l0.205,0.158
		l0.047-0.09l-0.252-0.068l0.205,0.158h-0.004l0.004,0.013v-0.013h-0.004l0.004,0.013l0.006-0.005l-0.279-0.764l0.209,0.79
		l0.07-0.026l-0.279-0.764l0.209,0.79l0.02-0.009l101.273-28.299l-0.125-0.432v0.448l0.125-0.017l-0.125-0.432v0.448v-1.104
		l-0.582,0.912l0.582,0.192v-1.104l-0.582,0.912l0.715-1.1h-1.336l0.621,1.1l0.715-1.1h-1.336h0.746l-0.732-0.154l-0.014,0.154
		h0.746l-0.732-0.154l0.006-0.025l-19.717,85.482c-0.152,0.636-0.318,0.857-0.492,1.023c-0.182,0.162-0.516,0.355-1.183,0.529
		l0.439,1.699l-0.416-1.703c-34.95,8.537-68.206,16.43-103.27,24.558L3320.829,2637.342l-0.376-1.715L3320.829,2637.342z"/>
	<path fill="#414042" d="M3498.646,2510.087c-5.335,28.714-12.082,60.331-17.844,89.028c-0.369,1.864-1.574,3.58-3.106,4.919
		c-1.511,1.318-3.343,2.228-4.552,2.526h0.004c-63.754,15.734-130.037,31.439-194.117,45.83l-0.938,0.102
		c-1.043,0.01-2.124-0.375-2.861-0.887l-0.777-0.738l-0.135-0.238l-0.017-0.053h-0.235l0.229,0.057l0.007-0.057h-0.235l0.229,0.057
		c0.246-0.939-0.311-1.898-1.254-2.143c-0.934-0.247-1.895,0.308-2.14,1.25l-0.11,0.836c0.057,1.793,1.17,3,2.451,3.926
		c1.316,0.896,3.001,1.502,4.85,1.506c0.564,0,1.136-0.064,1.709-0.188c64.105-14.403,130.406-30.113,194.188-45.855h0.008
		c1.885-0.486,4.053-1.6,6.006-3.294c1.934-1.689,3.659-3.993,4.237-6.864c5.757-28.666,12.511-60.299,17.859-89.08
		c0.173-0.955-0.452-1.869-1.405-2.047C3499.737,2508.504,3498.821,2509.131,3498.646,2510.087"/>
	<path fill="#414042" d="M3476.341,2492.07c-0.055,0.033-0.848,0.469-1.764,1.211c-0.898,0.756-2.004,1.736-2.451,3.383v-0.017
		c-0.491,1.907-1.464,6.101-1.464,6.105v0.815l0.655,2.746l0.268,0.581l6.588,9.468c0.43,0.618,1.195,0.891,1.914,0.699
		l19.553-5.469c0.938-0.266,1.482-1.229,1.223-2.164c-0.262-0.926-1.229-1.48-2.163-1.221l-18.354,5.129l-5.693-8.174l-0.578-2.42
		l-1.703,0.414l1.709,0.396c0-0.013,0.978-4.211,1.447-6.023l0.004-0.021c0.018-0.23,0.588-0.994,1.263-1.502l0.89-0.641
		l0.273-0.179l0.082-0.042c0.85-0.471,1.161-1.541,0.691-2.386C3478.261,2491.916,3477.19,2491.6,3476.341,2492.07"/>
	<path fill="#414042" d="M3301.275,2567.086l17.946-4.986c0.582-0.158,1.045-0.611,1.219-1.191c0.168-0.57,0.027-1.207-0.369-1.664
		l-7.543-8.52l-0.322-1.326l-1.709,0.414l1.698,0.443c0.625-2.441,1.772-5.936,3.053-7.582l-1.405-1.059l1.26,1.229l3.224-3.285
		c0.675-0.69,0.661-1.8-0.03-2.479c-0.691-0.678-1.803-0.67-2.479,0.021l-3.225,3.295l-0.146,0.166
		c-1.873,2.525-2.943,6.189-3.645,8.811l-0.007,0.857l0.429,1.753l0.391,0.747l5.969,6.74l-15.246,4.236
		c-0.932,0.256-1.48,1.229-1.219,2.16C3299.376,2566.805,3300.347,2567.348,3301.275,2567.086z"/>
	<path fill="#FFFFFF" d="M3444.675,2597.271l-5.744,1.408c-0.973,0.27-1.259,1.135-1.259,1.135
		c-0.618,1.767-0.981,3.562-1.206,5.418c0,0-0.204,1.093,0.84,0.832l5.51-1.318c1.034-0.252,1.518-0.742,1.719-1.816
		c0.168-1.664,0.474-3.238,1.008-4.822C3445.657,2597.678,3445.294,2597.17,3444.675,2597.271"/>
	<path fill="#414042" d="M3444.257,2595.57l-5.744,1.407l-0.052,0.009c-0.919,0.252-1.558,0.818-1.913,1.288l-0.545,0.981
		l1.666,0.559l-1.652-0.58c-0.67,1.912-1.061,3.84-1.295,5.785l1.744,0.213l-1.727-0.328l-0.045,0.537
		c0.01,0.295,0.01,0.738,0.35,1.328c0.303,0.618,1.234,1.143,1.971,1.096l0.704-0.09l5.503-1.322
		c0.705-0.17,1.453-0.479,2.038-1.096c0.583-0.611,0.872-1.383,1.001-2.107l0.016-0.142c0.162-1.565,0.439-2.999,0.934-4.446
		l0.027-0.102l0.078-0.619c0-0.645-0.249-1.241-0.693-1.697c-0.432-0.457-1.104-0.747-1.785-0.742l-0.473,0.047
		c-0.961,0.17-1.588,1.092-1.414,2.039c0.174,0.955,1.088,1.587,2.039,1.412l-0.152-0.824v0.842l0.152-0.018l-0.152-0.824v0.842
		v-1.076h-1.027c0,0.594,0.508,1.066,1.027,1.076v-1.076h-1.027h1.145l-1.104-0.299l-0.04,0.299h1.145l-1.104-0.299l1.696,0.465
		l-1.668-0.566c-0.583,1.732-0.912,3.447-1.088,5.217l1.744,0.172l-1.726-0.316l-0.083,0.303l0.006,0.009l-0.006-0.009l0.006,0.009
		l-0.328,0.115l-5.506,1.318l0.117,0.503v-0.508l-0.121,0.005l0.121,0.503v-0.508v1.238l1.035-0.623l-1.035-0.615v1.238l1.035-0.623
		l-0.783,0.473h0.936l-0.152-0.473l-0.783,0.473h0.936h-0.656l0.646,0.115l0.01-0.115h-0.656l0.646,0.115l0.018-0.105
		c0.211-1.771,0.547-3.431,1.117-5.064l0.011-0.021l-0.625-0.213l0.591,0.299l0.034-0.086l-0.625-0.213l0.591,0.299l0.094-0.082
		l-0.467-1.689l0.414,1.703l5.75-1.408c0.941-0.227,1.518-1.174,1.289-2.117C3446.149,2595.92,3445.2,2595.335,3444.257,2595.57"/>
	<path fill="#BCBEC0" d="M3348.665,2555.84c-0.48,0.137-1.107,0.627-1.27,1.246l-18.227,63.264
		c-0.162,0.473-0.045,1.045,0.815,0.874l93.247-22.63c1.178-0.277,1.299-1.258,1.299-1.258l14.824-65.456
		c0.229-0.811-0.52-1.011-1.098-0.845L3348.665,2555.84z"/>
	<path fill="#414042" d="M3348.665,2555.84l-0.48-1.686c-0.566,0.162-1.023,0.439-1.457,0.832c-0.426,0.389-0.834,0.914-1.027,1.669
		l1.695,0.431l-1.686-0.486l-18.224,63.264l1.683,0.486l-1.652-0.576l-0.166,0.926l0.604,1.582c0.473,0.529,1.198,0.742,1.744,0.73
		l0.619-0.068l0.083-0.018l93.245-22.625l-0.414-1.707l0.391,1.711c1.043-0.221,1.82-0.904,2.183-1.506
		c0.376-0.602,0.446-1.088,0.47-1.25l-1.744-0.213l1.709,0.389l14.824-65.452l-1.709-0.393l1.691,0.478l0.105-0.755
		c0.035-0.708-0.391-1.532-0.959-1.898c-0.554-0.393-1.09-0.474-1.548-0.478l-0.892,0.132l0.504,1.677l-0.471-1.689l-89.588,24.801
		l-0.014,0.008L3348.665,2555.84l0.467,1.689l89.592-24.801l0.029-0.008l-0.108-0.375v0.387l0.108-0.012l-0.108-0.375v0.387v-0.873
		l-0.505,0.69l0.505,0.183v-0.873l-0.505,0.69l0.684-0.947h-1.182l0.498,0.947l0.684-0.947h-1.182h0.709l-0.684-0.196l-0.025,0.196
		h0.709l-0.684-0.196l-0.025,0.086l-14.824,65.455l-0.031,0.184l0.463,0.051l-0.41-0.264l-0.053,0.213l0.463,0.051l-0.41-0.264
		l0.176,0.115l-0.124-0.171l-0.052,0.056l0.176,0.115l-0.124-0.171l0.032,0.047l-0.02-0.052l-0.013,0.005l0.032,0.047l-0.02-0.052
		l-0.064,0.021l-0.021,0.004l-93.246,22.635l0.413,1.706l-0.341-1.72l0.055,0.256v-0.26l-0.055,0.004l0.055,0.256v-0.26v1.17
		l0.832-0.773l-0.832-0.396v1.17l0.832-0.773l-0.87,0.803h1.2l-0.33-0.803l-0.87,0.803h1.2h-0.688l0.654,0.23l0.033-0.23h-0.688
		l0.654,0.23l0.027-0.094l18.227-63.268l0.018-0.051l-0.279-0.068l0.244,0.162l0.035-0.094l-0.279-0.068l0.244,0.162l0.068-0.064
		l0.043-0.029l-0.07-0.146l0.041,0.153l0.029-0.008l-0.07-0.146l0.041,0.153l-0.014,0.004L3348.665,2555.84z"/>
	<path fill="#FFFFFF" d="M3458.854,2543.852c1.613,1.902,0.469,5.475-2.506,7.953c-2.98,2.486-6.672,2.965-8.275,1.053
		c-1.568-1.91-0.463-5.469,2.527-7.947C3453.579,2542.422,3457.276,2541.945,3458.854,2543.852"/>
	<path fill="#414042" d="M3458.854,2543.852l-1.34,1.139l0.318,1.016c0.033,1.109-0.854,3.012-2.609,4.45
		c-1.467,1.241-3.146,1.831-4.289,1.817c-0.818,0-1.258-0.238-1.516-0.537l0.012,0.012l-0.314-1.041
		c-0.031-1.109,0.841-3.016,2.609-4.457c1.467-1.234,3.148-1.822,4.287-1.81c0.82,0.013,1.252,0.247,1.492,0.533l0.01,0.017
		L3458.854,2543.852l1.361-1.113c-1.066-1.293-2.668-1.822-4.203-1.813c-2.205,0.013-4.512,0.956-6.535,2.628
		c-2.375,2.002-3.838,4.578-3.873,7.154c-0.004,1.145,0.334,2.322,1.119,3.265l0.006,0.009c1.07,1.279,2.666,1.812,4.205,1.809
		c2.205-0.018,4.518-0.96,6.542-2.637c2.354-1.996,3.833-4.553,3.868-7.146c0.004-1.147-0.346-2.342-1.148-3.285L3458.854,2543.852
		l1.361-1.113L3458.854,2543.852z"/>
	<path fill="#FFFFFF" d="M3474.669,2529.605c1.586,1.912,0.447,5.471-2.523,7.945c-2.975,2.49-6.672,2.961-8.25,1.057
		c-1.598-1.915-0.476-5.469,2.504-7.936C3469.382,2528.182,3473.085,2527.695,3474.669,2529.605"/>
	<path fill="#414042" d="M3474.669,2529.605l-1.574,1.322l0.244,0.824c0.041,0.977-0.797,2.838-2.504,4.219h-0.006
		c-1.417,1.213-3.043,1.779-4.092,1.754c-0.754-0.008-1.086-0.209-1.264-0.426l-0.004-0.005l-0.252-0.853
		c-0.041-0.982,0.787-2.816,2.486-4.199l0.006-0.004c1.428-1.207,3.061-1.766,4.113-1.758c0.754,0.014,1.088,0.227,1.262,0.436
		l0.01,0.012L3474.669,2529.605l1.576-1.301c-1.135-1.369-2.831-1.924-4.422-1.912c-2.301,0.01-4.664,0.986-6.732,2.701l0.004-0.004
		c-2.418,2.031-3.936,4.642-3.975,7.352c-0.004,1.207,0.358,2.475,1.205,3.48l-0.004-0.008c1.129,1.365,2.824,1.92,4.416,1.91
		c2.295-0.016,4.654-0.988,6.727-2.709h-0.008c2.416-2.039,3.937-4.65,3.977-7.363c0.007-1.195-0.355-2.457-1.194-3.461l0.007,0.014
		L3474.669,2529.605z"/>
	<path fill="#FFFFFF" d="M3474.133,2528.996c1.599,1.902,0.47,5.469-2.515,7.943c-2.979,2.492-6.682,2.965-8.267,1.045
		c-1.579-1.902-0.474-5.465,2.515-7.93C3468.851,2527.549,3472.559,2527.094,3474.133,2528.996"/>
	<path fill="#414042" d="M3474.133,2528.996l-1.339,1.131l0.311,1.02c0.035,1.109-0.847,3.008-2.604,4.445
		c-1.474,1.237-3.151,1.83-4.288,1.822c-0.825-0.014-1.256-0.248-1.504-0.543l-0.004-0.008l-0.318-1.033
		c-0.027-1.104,0.844-3.008,2.597-4.428l0.009-0.004c1.469-1.242,3.14-1.826,4.283-1.814c0.821,0.005,1.268,0.248,1.508,0.533
		l0.012,0.01L3474.133,2528.996l1.353-1.113c-1.062-1.293-2.668-1.822-4.211-1.81c-2.199,0.009-4.512,0.947-6.531,2.628l0.006-0.008
		c-2.379,1.996-3.842,4.564-3.874,7.137c-0.005,1.148,0.341,2.33,1.13,3.281l-0.004-0.008c1.062,1.293,2.669,1.821,4.211,1.816
		c2.206-0.016,4.51-0.959,6.537-2.632c2.361-1.997,3.835-4.548,3.867-7.142c0.006-1.145-0.34-2.338-1.137-3.277l0.006,0.014
		L3474.133,2528.996z"/>
	<path fill="#FFFFFF" d="M3470.169,2553.055c1.596,1.91,0.467,5.473-2.515,7.943c-2.979,2.492-6.681,2.965-8.272,1.041
		c-1.581-1.91-0.457-5.452,2.521-7.936C3464.892,2551.621,3468.589,2551.146,3470.169,2553.055"/>
	<path fill="#414042" d="M3470.169,2553.055l-1.565,1.322l0.245,0.832c0.041,0.977-0.791,2.838-2.5,4.211l-0.006,0.008
		c-1.424,1.199-3.049,1.771-4.096,1.746c-0.76-0.01-1.105-0.214-1.287-0.432l-0.245-0.849c-0.04-0.981,0.79-2.82,2.498-4.22
		c1.423-1.195,3.053-1.754,4.106-1.744c0.762,0.012,1.102,0.23,1.27,0.434l0.015,0.014L3470.169,2553.055l1.579-1.302
		c-1.136-1.37-2.831-1.925-4.429-1.919c-2.287,0.016-4.65,0.98-6.727,2.691c-2.416,2.053-3.939,4.663-3.974,7.368
		c-0.007,1.194,0.353,2.453,1.188,3.452c1.129,1.373,2.837,1.936,4.439,1.928c2.293-0.018,4.654-0.99,6.719-2.705v0.009
		c2.413-2.044,3.943-4.655,3.977-7.368c0.006-1.199-0.355-2.467-1.205-3.469l0.011,0.013L3470.169,2553.055z"/>
	<path fill="#FFFFFF" d="M3469.632,2552.443c1.596,1.916,0.463,5.471-2.509,7.949c-2.979,2.479-6.677,2.965-8.269,1.049
		c-1.596-1.906-0.467-5.461,2.518-7.943C3464.343,2551.011,3468.052,2550.541,3469.632,2552.443"/>
	<path fill="#414042" d="M3469.632,2552.443l-1.346,1.127l0.317,1.029c0.034,1.108-0.849,3.002-2.603,4.445
		c-1.47,1.232-3.154,1.826-4.292,1.816c-0.821-0.008-1.257-0.238-1.501-0.533l-0.008-0.004l-0.314-1.037
		c-0.037-1.1,0.846-3.008,2.61-4.449c1.462-1.232,3.142-1.818,4.282-1.805c0.824,0.013,1.262,0.248,1.501,0.533l0.007,0.004
		L3469.632,2552.443l1.35-1.113c-1.062-1.293-2.664-1.816-4.203-1.812c-2.2,0.013-4.513,0.951-6.531,2.623
		c-2.369,2.002-3.838,4.566-3.871,7.146c-0.006,1.152,0.337,2.338,1.135,3.281l-0.006-0.004c1.066,1.283,2.668,1.817,4.204,1.805
		c2.2-0.014,4.512-0.955,6.536-2.629c2.363-2,3.834-4.547,3.869-7.141c0.005-1.148-0.341-2.33-1.137-3.273l0.004,0.004
		L3469.632,2552.443z"/>
	<path fill="#FFFFFF" d="M3485.435,2538.203c1.598,1.906,0.469,5.465-2.513,7.939c-2.974,2.496-6.677,2.961-8.263,1.045
		c-1.591-1.895-0.463-5.457,2.529-7.932C3480.159,2536.766,3483.86,2536.287,3485.435,2538.203"/>
	<path fill="#414042" d="M3485.435,2538.203l-1.568,1.318l0.246,0.832c0.043,0.977-0.789,2.828-2.496,4.211l-0.013,0.012
		c-1.41,1.199-3.032,1.768-4.079,1.75c-0.766-0.014-1.111-0.223-1.286-0.439l-0.011-0.014l-0.24-0.826
		c-0.043-0.979,0.795-2.83,2.504-4.217l0.004-0.008c1.424-1.199,3.049-1.766,4.098-1.749c0.76,0.013,1.088,0.226,1.264,0.431
		l0.01,0.018L3485.435,2538.203l1.586-1.297c-1.129-1.379-2.832-1.938-4.428-1.93c-2.295,0.018-4.652,0.99-6.721,2.705l0.01-0.008
		c-2.428,2.039-3.957,4.658-3.99,7.373c-0.008,1.198,0.357,2.461,1.198,3.469l-0.005-0.026c1.135,1.378,2.838,1.937,4.439,1.929
		c2.289-0.018,4.645-0.99,6.711-2.709l-0.006,0.012c2.424-2.047,3.944-4.658,3.979-7.367c0.006-1.199-0.356-2.467-1.205-3.465
		L3485.435,2538.203l1.586-1.297L3485.435,2538.203z"/>
	<path fill="#FFFFFF" d="M3484.909,2537.584c1.604,1.902,0.457,5.475-2.523,7.939c-2.969,2.492-6.662,2.961-8.27,1.051
		c-1.578-1.895-0.451-5.453,2.525-7.94C3479.622,2536.15,3483.335,2535.682,3484.909,2537.584"/>
	<path fill="#414042" d="M3484.909,2537.584l-1.339,1.131l0.312,1.016c0.033,1.109-0.855,3.02-2.611,4.445h-0.006
		c-1.464,1.242-3.135,1.83-4.271,1.826c-0.825-0.018-1.273-0.248-1.531-0.555l-0.305-1.007c-0.035-1.101,0.854-3.021,2.611-4.463
		c1.461-1.233,3.145-1.817,4.287-1.805c0.824,0.013,1.264,0.243,1.502,0.528l0.013,0.014L3484.909,2537.584l1.352-1.113
		c-1.062-1.293-2.67-1.818-4.205-1.812c-2.199,0.012-4.512,0.951-6.536,2.623c-2.368,2.006-3.837,4.569-3.874,7.159
		c-0.006,1.135,0.34,2.321,1.127,3.264c1.072,1.271,2.672,1.81,4.221,1.796c2.199-0.008,4.506-0.951,6.523-2.627h-0.004
		c2.367-1.988,3.842-4.549,3.879-7.143c0.006-1.148-0.34-2.334-1.138-3.273l0.007,0.014L3484.909,2537.584z"/>
	<path fill="#FFFFFF" d="M3316.972,2610.361l-6.656,2.121l-0.341-0.324l1.792-7.676l-0.529-0.547l-6.668,1.699l-0.457,0.465
		c0,0-1.293,5.436-1.639,6.949c-0.326,1.516-1.107,1.736-1.812,1.912l-6.98,1.305l-0.598,0.564c-0.168,0.596-2.061,6.65-2.061,6.65
		l0.363,0.401c0,0,5.113-0.909,7.596-1.382c0.604-0.111,0.666,0.17,0.539,0.639c-0.822,2.172-1.692,4.48-2.516,6.69l0.537,0.487
		l6.477-1.631l0.457-0.393l2.515-6.74l0.591-0.943l0.93-0.537l6.684-2.15l0.432-0.436l1.896-6.558L3316.972,2610.361z"/>
	<path fill="#414042" d="M3316.972,2610.361l-0.531-1.672l-6.66,2.119l0.535,1.674l1.21-1.268l-0.345-0.333l-1.206,1.276l1.708,0.4
		l1.793-7.672c0.135-0.58-0.032-1.189-0.441-1.621l-0.525-0.545c-0.439-0.461-1.088-0.641-1.695-0.486l-6.678,1.697l-0.818,0.474
		l-0.455,0.461l-0.459,0.823c0,0-1.288,5.436-1.639,6.977l-0.006,0.012l-0.141,0.436l-0.027,0.051l0.045,0.043l-0.035-0.055
		l-0.01,0.012l0.045,0.043l-0.035-0.055l-0.366,0.105l0.427,1.703l-0.322-1.725l-6.984,1.302l-0.881,0.448l-0.594,0.559
		l-0.486,0.807c-0.148,0.521-2.041,6.6-2.041,6.609c-0.184,0.596-0.043,1.245,0.38,1.701l0.356,0.396
		c0.41,0.439,1.012,0.648,1.602,0.547c0.006,0,5.115-0.9,7.618-1.383l-0.327-1.723l0.311,1.723l-0.075-0.436v0.445l0.075-0.01
		l-0.075-0.436v0.445v-1.383l-0.942,0.973l0.942,0.41v-1.383l-0.942,0.973l0.986-1.029h-1.439l0.453,1.029l0.986-1.029h-1.439h0.85
		l-0.843-0.136l-0.007,0.136h0.85l-0.843-0.136v0.013l1.692,0.469l-1.643-0.623c-0.822,2.172-1.692,4.484-2.518,6.703
		c-0.252,0.674-0.072,1.43,0.469,1.912l0.535,0.486c0.436,0.396,1.037,0.551,1.604,0.4l6.479-1.629l0.73-0.381l0.455-0.4
		l0.484-0.709l2.451-6.565l0.271-0.419l0.386-0.225l6.506-2.1l0.713-0.436l0.428-0.431l0.439-0.751l1.896-6.558
		c0.174-0.602,0.012-1.259-0.428-1.71l-0.551-0.564c-0.463-0.482-1.153-0.652-1.789-0.451L3316.972,2610.361l-1.256,1.225
		l0.543,0.567l1.264-1.225l-1.686-0.486l-1.779,6.136l-0.111,0.11l1.248,1.233l-0.539-1.668l-6.68,2.15l-0.346,0.145l-0.926,0.537
		l-0.604,0.584l-0.598,0.943l-0.155,0.334l-2.356,6.309l-0.129,0.111l1.156,1.318l-0.426-1.702l-6.486,1.63l0.436,1.703l1.178-1.298
		l-0.539-0.486l-1.176,1.297l1.643,0.61c0.82-2.205,1.697-4.506,2.513-6.689l0.052-0.15l0.115-0.807l-0.613-1.492l-1.497-0.572
		l-0.546,0.043h-0.018c-2.457,0.469-7.564,1.373-7.57,1.373l0.303,1.737l1.301-1.19l-0.364-0.393l-1.3,1.182l1.682,0.521
		c0.004-0.014,1.873-6.021,2.068-6.691l-1.689-0.48l1.206,1.275l0.216-0.214l6.477-1.203l0.105-0.021
		c0.363-0.095,1.061-0.248,1.736-0.803c0.691-0.559,1.162-1.434,1.363-2.441v0.014c0.34-1.484,1.629-6.934,1.635-6.938l-1.709-0.4
		l1.246,1.236l0.117-0.119l6.197-1.578l-0.436-1.703l-1.263,1.217l0.526,0.551l1.266-1.221l-1.709-0.396l-1.791,7.67
		c-0.146,0.606,0.047,1.246,0.496,1.678l0.346,0.324c0.463,0.439,1.135,0.593,1.738,0.4l6.658-2.12L3316.972,2610.361l-1.256,1.225
		L3316.972,2610.361z"/>
	<path fill="#FFFFFF" d="M3496.065,2456.918l-0.943-0.264l-0.994-0.623c-1.014,0.085-2.404,0.238-2.41,0.238l-0.646,0.244
		l-0.531,0.076l-1.021-0.32c-0.453-0.332-0.723-0.844-0.732-1.398c-0.027-1.392-0.252-8.213-0.305-9.531
		c-0.03-0.819,0.691-1.736,1.474-1.959l0.792-0.247c1.373-0.153,3.455-0.239,3.455-0.239h0.076l0.891,0.239
		c0.362,0.213,0.362,0.213,1.49,0.96c0.447,0.299,0.926,1.259,0.971,1.787c0.023,0.61,0.167,8.674,0.188,9.211
		c0.031,0.653-0.311,1.268-0.876,1.596L3496.065,2456.918z"/>
	<path fill="#414042" d="M3494.278,2441.133h-0.154c0,0-2.119,0.098-3.133,0.179l-0.759,0.142l-0.839,0.26
		c-1.373,0.423-2.551,1.843-2.653,3.285l-0.015,0.405c0.055,1.318,0.277,8.123,0.301,9.505c0.023,1.105,0.569,2.139,1.467,2.782
		c0.604,0.435,1.323,0.653,2.045,0.653l1.062-0.162l0.65-0.209c0.352-0.035,0.906-0.086,1.452-0.146l0.483,0.312
		c0.568,0.357,1.225,0.541,1.879,0.541c0.604,0,1.211-0.162,1.752-0.473c1.138-0.652,1.811-1.882,1.752-3.191
		c-0.021-0.525-0.053-2.504-0.088-4.483c-0.033-2.053-0.068-4.101-0.094-4.655c-0.164-2.064-1.293-2.99-1.949-3.366
		c-0.998-0.679-1.005-0.67-1.391-0.904C3495.517,2441.299,3494.899,2441.133,3494.278,2441.133 M3494.278,2444.645
		c0.346,0.195,0.346,0.195,1.406,0.908l0.192,0.474c0.05,1.079,0.144,8.06,0.188,9.138l-1.52-0.93
		c-0.967,0.064-3.021,0.286-3.021,0.286l-0.986,0.315c-0.033-1.395-0.252-8.238-0.301-9.569l0.193-0.2l0.832-0.26
		C3492.233,2444.738,3494.278,2444.645,3494.278,2444.645"/>
	<path fill="#97999C" d="M3394.864,2421.908c-1.426-0.949-3.441-0.634-5.047,0.746l-1.142,1.323
		c-0.896,1.331-1.255,2.854-0.978,4.22c0.203,0.968,0.707,1.766,1.457,2.248c1.414,0.964,3.436,0.661,5.047-0.733l1.125-1.306
		C3396.929,2426.017,3396.727,2423.154,3394.864,2421.908"/>
	<path fill="#414042" d="M3379.757,2636.186c2.947,0.615,5.068,2.438,4.723,4.102c-0.346,1.654-3.025,2.49-5.963,1.872
		c-2.958-0.622-5.078-2.458-4.732-4.108C3374.13,2636.387,3376.798,2635.568,3379.757,2636.186"/>
	<path fill="#414042" d="M3497.64,2542.166c0.521,0.824,2.686,3.504,3.225,4.283l0.158-0.016c0.033-0.154,3.064-16.447,3.332-17.916
		l-0.068-0.389c-0.531-0.814-2.633-3.797-3.137-4.611l-0.168,0.021c-0.988,5.401-2.406,12.829-3.422,18.238L3497.64,2542.166z"/>
</g>
</svg>
