<?xml version="1.0" encoding="UTF-8" standalone="no"?>
<!-- Created with Inkscape (http://www.inkscape.org/) -->

<svg
   xmlns:dc="http://purl.org/dc/elements/1.1/"
   xmlns:cc="http://creativecommons.org/ns#"
   xmlns:rdf="http://www.w3.org/1999/02/22-rdf-syntax-ns#"
   xmlns:svg="http://www.w3.org/2000/svg"
   xmlns="http://www.w3.org/2000/svg"
   xmlns:sodipodi="http://sodipodi.sourceforge.net/DTD/sodipodi-0.dtd"
   xmlns:inkscape="http://www.inkscape.org/namespaces/inkscape"
   id="svg4136"
   version="1.1"
   inkscape:version="0.91 r13725"
   width="500"
   height="500"
   viewBox="0 -50 400 475"
   sodipodi:docname="Xbox Logo.svg">
  <title
     id="title4166">Xbox Logo</title>
  <metadata
     id="metadata4142">
    <rdf:RDF>
      <cc:Work
         rdf:about="">
        <dc:format>image/svg+xml</dc:format>
        <dc:type
           rdf:resource="http://purl.org/dc/dcmitype/StillImage" />
        <dc:title>Xbox Logo</dc:title>
      </cc:Work>
    </rdf:RDF>
  </metadata>
  <defs
     id="defs4140" />
  <sodipodi:namedview
     pagecolor="#ffffff"
     bordercolor="#666666"
     borderopacity="1"
     objecttolerance="10"
     gridtolerance="10"
     guidetolerance="10"
     inkscape:pageopacity="0"
     inkscape:pageshadow="2"
     inkscape:window-width="1920"
     inkscape:window-height="1017"
     id="namedview4138"
     showgrid="false"
     inkscape:zoom="2.2378738"
     inkscape:cx="187.5"
     inkscape:cy="188.125"
     inkscape:window-x="-8"
     inkscape:window-y="-8"
     inkscape:window-maximized="1"
     inkscape:current-layer="svg4136" />
  <g
     id="g4146"
     transform="translate(-0.10064756,0.22319253)">
    <path
       style="fill:#e8e8e8"
       d="m 165,374.9911 c -11.82198,-1.62741 -30.56484,-6.0788 -40.625,-9.64836 C 102.40689,357.54799 68.359154,336.38931 61.567924,326.31181 56.09408,318.18918 58.387437,301.80189 67.533668,283.6833 84.68166,249.71333 135.52999,191.70824 178.82674,156.72609 l 8.5988,-6.94753 9.35836,7.647 c 49.5809,40.51402 101.49441,101.96987 114.62921,135.69944 4.44598,11.41706 5.86752,23.08964 3.63556,29.8525 -1.07407,3.25448 -3.93708,6.52378 -9.84411,11.24107 -24.72965,19.74883 -50.33971,31.87065 -80.82956,38.25843 -14.2499,2.98543 -46.14154,4.3358 -59.375,2.5141 z M 31.700127,292.80261 C 18.481203,272.8913 8.6461071,249.54636 3.4977889,225.86051 c -4.02306614,-18.50891 -4.02306614,-56.96211 0,-75.47102 7.2950561,-33.56234 23.5493021,-65.069209 46.3853681,-89.912354 6.578729,-7.156939 6.927195,-7.350362 13.125,-7.28532 12.907122,0.135454 36.577993,15.065635 62.316453,39.305529 l 12.19963,11.489315 -5.19297,6.44417 C 103.3167,146.43625 75.124425,190.10529 58.098016,225.41604 42.933258,256.86595 36.77292,280.14857 39.55509,295.49792 c 1.756322,9.68971 -0.04243,9.07249 -7.854963,-2.69531 z m 302.564443,7.68045 c 10.08137,-26.03916 -21.72773,-97.02944 -76.08932,-169.81305 -6.21514,-8.32132 -13.42239,-17.71539 -16.01612,-20.8757 l -4.71587,-5.74603 12.21587,-11.603087 c 23.28972,-22.121435 47.27828,-37.717199 60.77609,-39.512565 l 6.06023,-0.80608 9.09099,9.42111 c 21.79094,22.582237 38.32625,54.940862 45.83804,89.702342 4.05318,18.75654 4.10458,54.78389 0.10437,73.20581 -5.50694,25.36112 -15.95932,50.4117 -28.61756,68.58597 -5.88765,8.45328 -10.61299,12.51985 -8.64676,7.44128 z M 169.47388,48.080195 C 141.85026,34.443282 116.77858,27.760337 98.523328,29.168081 93.134255,29.583656 88.75,29.426525 88.75,28.817806 c 0,-1.72927 25.68492,-14.393422 37.88949,-18.681713 21.15582,-7.4334676 33.74487,-9.3720934 60.86051,-9.3720934 27.8037,0 41.14754,2.1531963 62.44584,10.0764224 12.3867,4.608002 36.30416,16.277462 36.30416,17.713 0,0.451868 -6.60938,0.849139 -14.6875,0.882825 -11.89198,0.04959 -16.98473,0.692238 -26.75697,3.376433 -15.71688,4.317039 -29.25054,9.586004 -44.29043,17.243273 -6.69125,3.406726 -12.77886,6.149833 -13.52801,6.095795 -0.74915,-0.05404 -8.63009,-3.686238 -17.51321,-8.071553 z"
       id="path4164"
       inkscape:connector-curvature="0" />
    <path
       style="fill:#cfcfcf"
       d="m 170.625,375.50384 c -36.29836,-5.32145 -59.46011,-13.32709 -83.75,-28.9474 -13.772795,-8.85699 -23.904303,-17.4148 -26.103225,-22.04869 -9.282781,-19.56201 12.33686,-59.58269 61.465655,-113.78065 20.56329,-22.68505 60.87855,-59.4771 65.17262,-59.4771 4.09175,0 43.20025,35.56251 63.618,57.84971 49.7975,54.35698 72.5292,95.74859 63.28376,115.23188 -3.63975,7.67022 -24.92327,22.93757 -46.18681,33.13128 -24.92666,11.94983 -47.25514,17.28895 -75.625,18.08327 -9.96875,0.2791 -19.8125,0.26007 -21.875,-0.0422 z M 35.828523,298.4375 C 21.060916,278.75918 9.5454275,252.43965 3.4811335,224.50507 -0.47556824,206.27891 -0.48057775,169.99281 3.4710954,151.79419 9.1480467,125.65014 17.969255,104.54607 32.079441,83.350915 42.092519,68.310099 56.906465,52.5 60.986522,52.5 c 4.684869,0 17.917275,4.934336 25.413088,9.476487 14.27429,8.649628 49.85039,38.606503 49.85039,41.976553 0,0.68976 -4.67346,7.25437 -10.38546,14.58803 C 90.252554,164.26344 60.44739,214.00961 47.101614,250 c -6.28006,16.93583 -8.852808,30.80576 -7.931149,42.7576 0.413205,5.35831 0.516264,9.7424 0.229022,9.7424 -0.287242,0 -1.894176,-1.82813 -3.570964,-4.0625 z M 335.59984,289.16324 C 335.63751,268.89463 330.41689,251.81886 314.45439,220 297.77655,186.75522 269.18825,142.78292 244.8959,113.01056 l -7.23281,-8.86445 8.35595,-8.134045 C 267.25796,75.337179 289.84119,59.193847 303.37055,55.015053 307.84909,53.631774 312.59165,52.5 313.9096,52.5 c 6.81805,0 29.7326,28.980641 41.01127,51.86806 14.17685,28.76858 19.33825,51.07019 19.38439,83.75694 0.0334,23.65105 -2.4297,39.69699 -9.11875,59.40454 -6.24874,18.41028 -17.7566,40.64435 -26.72445,51.6337 l -2.88739,3.53825 0.0251,-13.53825 z M 176.875,51.197946 C 166.39384,45.375786 143.20634,36.11922 129.375,32.23571 121.53104,30.033314 116.07356,29.42224 104.0625,29.401474 95.640625,29.386914 88.75,28.993751 88.75,28.527781 c 0,-1.453233 30.14547,-15.800048 40,-19.0367761 19.84079,-6.5167243 33.9957,-8.670844 57.5,-8.75045255 25.01961,-0.0847409 37.13764,1.70277365 58.6166,8.64645995 13.50129,4.3646737 38.96231,16.3738127 39.72711,18.7379877 0.25278,0.781403 -4.867,1.267506 -13.65717,1.2967 -10.55644,0.03506 -16.86582,0.772865 -25.31154,2.959881 -13.647,3.533884 -32.52483,10.914188 -46.94248,18.352206 -5.88086,3.033917 -11.22461,5.473118 -11.875,5.420445 -0.65038,-0.05267 -5.12002,-2.283001 -9.93252,-4.956286 z"
       id="path4162"
       inkscape:connector-curvature="0" />
    <path
       style="fill:#b0b0b0"
       d="M 166.875,374.80317 C 133.55192,371.07154 99.79061,357.28535 72.752699,336.36904 61.802742,327.89824 58.75,323.00725 58.75,313.93446 c 0,-21.75903 24.248115,-60.48591 66.45443,-106.13492 19.74789,-21.3587 58.40719,-56.54954 62.12315,-56.54954 4.78796,0 54.98798,47.40379 76.11472,71.875 40.38301,46.77584 58.47605,82.13904 51.08078,99.8384 -4.28674,10.2596 -33.00527,29.73879 -58.96603,39.99544 -27.52372,10.87414 -59.36709,15.12712 -88.68205,11.84433 z M 34.687694,296.5625 C 19.635199,275.65737 8.9274559,250.53902 3.5219638,223.45356 -0.472956,203.43611 -0.511471,172.62919 3.4340016,153.09546 9.7424541,121.86281 21.370976,96.488798 40.656105,71.875 53.219011,55.84084 56.224896,53.411009 63.349884,53.530305 75.802956,53.73881 100.8368,69.826235 127.5,94.754897 c 7.2937,6.819223 9.09749,9.170783 8.125,10.592393 -0.6875,1.005 -8,10.7621 -16.25,21.68246 -36.14083,47.83886 -62.400051,93.33412 -74.584105,129.22025 -5.076596,14.95227 -5.307385,16.28424 -5.360446,30.93698 -0.0305,8.42158 -0.148167,15.31221 -0.261488,15.3125 -0.113325,2.8e-4 -2.129892,-2.67136 -4.481267,-5.93698 z m 300.861096,-8.7499 c -0.064,-12.32036 -0.63025,-16.50079 -3.5137,-25.9376 -11.6511,-38.13106 -43.77437,-93.61496 -83.97322,-145.04005 -7.42976,-9.50466 -9.3477,-12.75563 -8.41317,-14.26059 1.99661,-3.215336 25.25861,-23.730303 35.9763,-31.727824 13.53594,-10.100493 28.31375,-17.14139 36.31432,-17.301979 6.08142,-0.122062 6.28043,-0.002 14.05629,8.478312 8.172,8.912368 19.49687,24.795461 26.18695,36.727131 C 365.59081,122.6634 375,159.51881 375,188.125 c 0,29.6862 -9.45425,65.55866 -24.08216,91.37542 -3.99327,7.04772 -14.41539,22.99946 -15.02692,22.99968 -0.14626,5e-5 -0.30022,-6.60932 -0.34213,-14.6875 z M 170.625,48.077686 C 141.75406,33.939119 119.88196,28.031502 99.937312,28.985069 86.305705,29.636804 86.65253,28.900045 104.07313,20.199364 131.2644,6.6187395 156.39027,0.76275067 187.5,0.75539212 c 22.55194,-0.005334 36.47562,2.11754028 56.875,8.67144288 13.52834,4.346378 39.46357,16.463889 40.2431,18.802452 0.23933,0.717973 -3.41361,1.002631 -9.14951,0.712982 -19.33623,-0.976436 -42.95679,5.367871 -71.54637,19.216816 -9.18652,4.450002 -16.78027,8.04267 -16.875,7.983702 -0.0947,-0.05897 -7.48472,-3.688261 -16.42222,-8.065101 z"
       id="path4160"
       inkscape:connector-curvature="0" />
    <path
       style="fill:#909090"
       d="M 169.48686,374.87511 C 137.62184,371.5161 107.40144,360.40246 81.360421,342.46635 58.415442,326.66269 55.316369,320.14012 61.394374,300.44418 69.777047,273.27987 95.842286,237.75865 139.29582,194.28154 162.96077,170.60374 184.6758,151.25 187.5775,151.25 c 2.12791,0 24.63787,19.6164 42.2621,36.82947 58.70378,57.33437 92.77198,110.73223 85.22929,133.58682 -1.78825,5.41843 -10.35064,13.38313 -24.31187,22.6148 -26.36202,17.4315 -53.93616,27.12383 -87.27026,30.67558 -13.58341,1.44732 -19.63408,1.4328 -33.9999,-0.0816 z M 33.622964,294.81292 C 16.102412,269.01277 5.9436018,242.36087 1.8662911,211.49847 c -2.35419139,-17.81957 -2.35419139,-28.92737 0,-46.74694 C 7.0083216,125.82994 23.22364,90.446774 48.930633,62.053224 l 7.760727,-8.571777 6.988849,0.505528 C 72.508074,54.625525 83.57437,59.78173 97.270212,69.637822 108.18167,77.49016 136.25,102.19158 136.25,103.94183 c 0,0.56059 -4.78143,7.07489 -10.6254,14.47621 -23.65534,29.95922 -47.338318,66.37627 -63.21269,97.20143 -17.961371,34.87774 -24.28695,55.22054 -23.420089,75.31803 0.274299,6.35937 0.35306,11.5625 0.175028,11.5625 -0.178033,0 -2.672782,-3.45917 -5.543885,-7.68708 z M 335.59,287.8125 c -0.0392,-16.4683 -1.41595,-22.53022 -10.00701,-44.0625 -14.57367,-36.5268 -47.17735,-89.69939 -79.51258,-129.67516 -4.02622,-4.97759 -7.32041,-9.58919 -7.32041,-10.24801 0,-0.65882 6.04687,-6.618199 13.4375,-13.243067 27.23431,-24.412518 44.82757,-35.431368 58.29796,-36.512642 l 7.83144,-0.628632 7.40405,8.3748 c 17.95193,20.305614 30.88899,42.680851 39.20316,67.803621 6.86778,20.75222 9.27117,35.91838 9.27117,58.50409 0,22.51749 -2.40277,37.74898 -9.19134,58.26535 -5.61737,16.97674 -12.58412,31.41831 -22.09294,45.79715 -3.75086,5.67187 -6.92465,10.3125 -7.05287,10.3125 -0.12822,0 -0.24888,-6.60938 -0.26813,-14.6875 z M 170.625,48.008995 c -16.60534,-8.220411 -36.48961,-15.36938 -50.14904,-18.030026 -4.20698,-0.819454 -12.78539,-1.290578 -19.06314,-1.046943 -6.277744,0.243637 -11.413799,0.02623 -11.413451,-0.48313 8.55e-4,-1.25494 22.970821,-12.702222 33.432901,-16.661577 23.358,-8.8397924 55.26761,-13.1336541 79.14032,-10.6493831 27.4743,2.8590636 43.39841,7.3481717 67.11491,18.9201181 8.42187,4.109268 15.31279,7.886646 15.31313,8.394171 3.4e-4,0.507526 -5.04122,0.726964 -11.20348,0.487639 -19.50946,-0.757693 -43.64695,5.940226 -71.79473,19.922339 -8.17991,4.063288 -14.92991,7.343583 -15,7.289544 -0.0701,-0.05404 -7.43992,-3.718277 -16.37742,-8.142752 z"
       id="path4158"
       inkscape:connector-curvature="0" />
    <path
       style="fill:#6f6f6f"
       d="m 171.25,374.84595 c -32.10961,-3.23924 -61.06482,-13.41096 -87.007021,-30.56486 -13.961226,-9.23167 -22.523614,-17.19637 -24.311862,-22.6148 -5.590911,-16.94064 11.413746,-50.509 47.385023,-93.54129 18.28859,-21.87856 75.52895,-76.875 80.0116,-76.875 2.03406,0 26.35356,21.0732 42.501,36.82771 55.50687,54.15627 89.41543,105.79732 85.79396,130.65996 -0.68086,4.67438 -1.94201,6.70539 -7.383,11.88999 -12.87821,12.27135 -38.29374,27.14492 -58.38908,34.17019 -13.54183,4.73419 -31.69691,8.554 -48.42056,10.18764 -14.29779,1.39666 -14.9836,1.39349 -30.18006,-0.13954 z M 32.089002,292.1875 C 18.034301,270.93461 7.3977254,244.3283 2.9802865,219.375 c -2.97748425,-16.81926 -2.97748425,-45.68074 0,-62.5 6.1028648,-34.47396 22.4513055,-68.083859 46.1629325,-94.903955 7.021437,-7.941911 7.467077,-8.220038 13.125,-8.191376 14.051356,0.07119 37.831841,15.264535 64.959861,41.502847 8.01124,7.748514 8.9108,9.066394 7.49999,10.987894 -0.88168,1.20085 -8.1479,10.82814 -16.14711,21.39398 -34.424145,45.46938 -62.418982,94.01036 -74.313911,128.85483 -4.582738,13.42447 -4.817173,14.87553 -4.853684,30.04245 -0.0211,8.76518 -0.143274,15.93705 -0.271495,15.9375 -0.128222,4.5e-4 -3.302012,-4.6398 -7.052867,-10.31167 z M 336.0084,290.93255 c 0.38006,-8.81174 -0.13413,-14.21389 -2.16433,-22.7385 -8.27208,-34.73363 -38.49293,-89.39745 -78.54142,-142.06664 -7.38521,-9.71255 -14.25525,-18.80492 -15.26676,-20.20527 -2.03997,-2.82414 -3.52023,-1.21362 21.15231,-23.013643 20.28071,-17.919523 40.01401,-29.070443 51.54804,-29.128828 5.82732,-0.0295 5.91412,0.03241 15,10.698038 27.59721,32.395509 41.5752,65.469283 46.11748,109.120013 3.14335,30.20727 -3.57755,65.50323 -18.23747,95.77728 -5.49501,11.3477 -15.56258,28.18097 -19.24759,32.18255 -0.47232,0.51291 -0.63445,-4.26834 -0.36026,-10.625 z M 180.0173,52.293677 C 169.91627,46.50288 146.24704,36.600431 134.07666,33.073595 121.12102,29.319195 105.38613,27.469496 96.5625,28.663655 92.953125,29.152135 90,29.142311 90,28.641824 c 0,-1.690494 24.28615,-13.37722 36.90856,-17.76075 37.9587,-13.1823518 77.5845,-13.6881354 116.84144,-1.4913636 10.62832,3.3021236 41.24741,17.4953556 41.25291,19.1224566 0.001,0.474558 -4.92026,0.667223 -10.9375,0.428143 -22.91456,-0.910451 -47.66791,6.798994 -86.56541,26.960854 -0.34375,0.178176 -3.71096,-1.445193 -7.4827,-3.607487 z"
       id="path4156"
       inkscape:connector-curvature="0" />
    <path
       style="fill:#4e4e4e"
       d="M 173.82044,374.8316 C 140.29517,371.93184 112.09006,362.30751 85.246459,344.60784 68.101936,333.30336 61.6121,327.22606 59.88001,320.85385 c -4.876217,-17.9392 15.097235,-55.51713 51.94493,-97.72885 19.76931,-22.64719 53.80272,-55.53906 70.99076,-68.60959 l 4.6907,-3.56701 11.57195,9.40317 c 25.19654,20.47429 58.22526,54.4945 80.11269,82.51758 30.03059,38.449 42.1423,67.81247 33.87792,82.13325 -3.04727,5.28041 -20.46831,18.6463 -34.62487,26.56514 -31.28922,17.50241 -70.48148,26.2172 -104.62365,23.26406 z M 31.09947,290.30654 C 13.573089,263.03596 4.9222696,237.65191 1.1109376,202.31135 -1.1404017,181.43583 1.9809731,155.07606 9.5953226,130.6614 13.555504,117.96347 24.279106,95.743342 31.93349,84.375 40.868729,71.104324 54.898012,55.073228 58.330185,54.211806 c 12.19936,-3.061844 38.937453,12.58769 65.923485,38.584348 l 12.01952,11.578846 -11.2779,14.375 c -15.62139,19.9113 -32.269761,44.03587 -45.934286,66.56179 -29.503605,48.6366 -43.959269,87.68997 -40.48557,109.37571 0.578162,3.60937 0.713336,6.55981 0.300385,6.55654 -0.41295,-0.004 -3.912308,-4.92517 -7.776349,-10.9375 z m 304.38915,8.97311 c 1.35739,-3.5373 1.06669,-20.44128 -0.47281,-27.49437 -8.2674,-37.87614 -46.11114,-105.11599 -89.29672,-158.66028 l -7.05723,-8.75 12.04965,-11.66549 c 22.99733,-22.264153 46.1731,-37.181571 59.97923,-38.60649 l 6.87912,-0.709988 5.69148,6.115984 c 21.10284,22.676831 37.21367,51.751384 44.73596,80.733144 1.72978,6.66444 4.06514,20.1278 5.18971,29.91858 1.88917,16.4475 1.89042,19.16292 0.0164,35.70246 -3.85045,33.98357 -13.454,60.98279 -30.90004,86.87177 -5.07933,7.53745 -8.43088,10.75617 -6.81477,6.54468 z M 171.46486,48.052596 C 143.881,34.06595 113.01556,25.864276 97.417026,28.376347 93.337661,29.03331 90,29.204564 90,28.756911 c 0,-1.489782 21.70759,-12.191047 33.75,-16.637853 14.90652,-5.5044139 31.51207,-9.0807271 50,-10.7684261 33.21989,-3.0325288 73.79764,5.8516134 103.70342,22.7049531 l 7.59074,4.277749 -12.83457,0.04242 c -20.48624,0.06771 -44.835,7.153511 -71.58459,20.832003 -6.875,3.515555 -12.78125,6.451941 -13.125,6.525303 -0.34375,0.07336 -7.55956,-3.382849 -16.03514,-7.680467 z"
       id="path4154"
       inkscape:connector-curvature="0" />
    <path
       style="fill:#2e2e2e"
       d="M 167.5,374.21811 C 136.55046,370.2901 108.33635,359.93595 83.436289,343.36801 59.03244,327.13025 55.672895,320.18551 62.154496,299.375 72.578043,265.90805 122.93547,204.44192 176.25,160.11034 c 5.84375,-4.85914 10.91625,-8.84054 11.27222,-8.84757 1.93807,-0.0382 33.16183,27.97324 49.35278,44.2754 38.97639,39.24412 66.92231,77.37829 75.61491,103.18189 3.12281,9.26991 3.48423,20.77031 0.81495,25.93213 -5.30063,10.2503 -38.88376,31.0442 -64.93111,40.20387 -18.56343,6.52791 -32.9195,8.95958 -55.87375,9.46404 -11.34375,0.2493 -22.59375,0.2034 -25,-0.102 z M 34.449299,295.3125 C 27.847923,286.2499 19.409305,270.61417 14.37917,258.125 8.1200263,242.58436 4.1706869,226.2338 1.7274458,205.74592 -0.20412347,189.54869 -0.2046912,187.12776 1.7192354,170.73524 2.8560001,161.04961 5.1500399,147.78125 6.8171015,141.25 14.403209,111.52899 30.68593,81.736611 50.42314,61.464354 c 7.591474,-7.797268 7.785268,-7.903075 13.521333,-7.382331 12.954101,1.176023 36.909547,16.562595 60.754117,39.022341 11.47775,10.811146 11.55538,10.924546 9.375,13.692526 -63.462175,80.56467 -101.98399,156.26525 -95.697628,188.05877 0.695377,3.51689 1.069472,6.39434 0.831324,6.39434 -0.238147,0 -2.379242,-2.67188 -4.757987,-5.9375 z m 302.003471,-0.0294 c 3.37614,-17.82486 -7.73895,-52.09678 -29.73541,-91.68526 C 291.2133,175.6942 266.626,139.17954 244.83104,111.69035 l -6.09282,-7.68464 12.1382,-11.487563 c 23.42687,-22.171121 46.88695,-37.189781 60.07177,-38.456673 l 6.05261,-0.58158 9.0166,9.654888 c 32.74064,35.058353 52.15318,91.376308 47.59905,138.090138 -2.66112,27.29631 -8.6008,48.78412 -19.52915,70.65008 -5.40991,10.82443 -15.66892,27.40987 -17.75012,28.69612 -0.5519,0.34109 -0.49988,-2.0385 0.11562,-5.28798 z M 170.47349,47.455004 C 142.55746,33.549336 116.09474,26.428905 98.125,27.987896 l -8.75,0.75912 6.875,-3.863527 c 16.24195,-9.127448 36.51765,-16.6084294 56.25,-20.7541654 15.10652,-3.17385554 54.99704,-3.1612281 70,0.022159 15.89591,3.3728576 34.3637,9.8800724 49.28697,17.3665124 L 285.10671,28.2 271.61586,28.25614 c -20.61484,0.08579 -41.26651,6.09343 -71.04919,20.66844 L 186.875,55.625 170.47349,47.455004 Z"
       id="path4152"
       inkscape:connector-curvature="0" />
    <path
       style="fill:#161616"
       d="M 170,374.25701 C 131.3451,369.65614 100.78046,357.21589 70.830962,333.89377 61.840239,326.89257 60,323.47389 60,313.77264 60,300.62205 66.006282,286.26804 80.931424,263.75 102.92733,230.56407 142.22494,188.08352 177.87665,158.95262 l 9.69576,-7.92238 14.59491,12.29738 c 17.20294,14.49485 45.2912,42.27598 60.54418,59.88213 39.77565,45.91213 57.63015,81.09414 50.9212,100.33942 -1.49184,4.27948 -11.17601,12.54018 -25.5077,21.75833 -29.19174,18.77614 -60.34678,28.24184 -95.625,29.05332 -9.96875,0.2293 -20.09375,0.18259 -22.5,-0.10375 z M 33.828759,294.18542 C 31.046401,290.29991 25.735327,281.15929 22.026371,273.87292 10.226442,250.6916 5.3099952,233.95895 1.8195839,205.10105 -0.05758366,189.58107 -0.05530696,187.03872 1.8500385,171.09292 2.9826493,161.61414 4.9580576,149.47491 6.2398349,144.11687 13.319088,114.52448 29.442151,84.058505 49.246174,62.852551 l 8.769004,-9.389764 5.761857,0.682408 c 7.660729,0.9073 17.60479,5.430592 29.324388,13.338895 9.687607,6.537127 31.634777,24.943811 38.994487,32.70395 l 3.97091,4.18696 -7.55308,9.375 c -55.791204,69.2489 -96.44432,150.89975 -90.231621,181.22814 0.706627,3.44952 1.131932,6.27186 0.945124,6.27186 -0.186809,0 -2.616127,-3.17906 -5.398484,-7.06458 z m 302.783701,0.72879 C 342.7708,263.7682 301.84234,182.31091 243.9174,110.42917 l -5.19427,-6.44583 11.57593,-10.852851 c 23.63965,-22.163009 46.81948,-37.17661 60.13145,-38.947215 l 6.05552,-0.805435 8.31948,8.66527 c 21.55087,22.446582 37.92378,54.480261 45.37755,88.781351 3.70947,17.07033 4.01084,52.84904 0.59849,71.05054 -4.53245,24.17615 -14.16636,48.21806 -27.54785,68.74709 -3.81019,5.84535 -7.14055,10.62791 -7.4008,10.62791 -0.26025,0 0.0905,-2.8511 0.77956,-6.33579 z M 169.53556,46.860181 C 142.35594,33.441674 116.54069,26.432025 99.376492,27.809801 94.906921,28.168575 91.25,28.25077 91.25,27.992456 c 0,-1.152839 25.43455,-13.075378 35.38949,-16.588955 20.6778,-7.2981855 33.75725,-9.3373717 60.23551,-9.3911762 33.01209,-0.067081 51.61372,3.8784281 78.99216,16.7546702 19.78238,9.303765 19.79836,9.33922 4.2718,9.468128 -19.75048,0.163975 -39.11875,5.755022 -67.18186,19.393425 -8.34235,4.054298 -15.65485,7.327238 -16.25,7.2732 -0.59515,-0.05404 -8.32235,-3.672744 -17.17154,-8.041567 z"
       id="path4150"
       inkscape:connector-curvature="0" />
    <path
       style="fill:#000000"
       d="M 168.2944,373.74853 C 139.61126,371.0014 110.57139,360.70054 85.625,344.42449 64.720673,330.78566 60,325.17896 60,313.9899 c 0,-22.47524 24.711913,-61.84014 66.99249,-106.71584 24.01246,-25.48631 57.46022,-55.36001 61.0775,-54.55105 7.0309,1.57238 63.25048,56.41053 84.29656,82.2252 33.28077,40.82148 48.58095,74.24535 40.808,89.14682 -5.9087,11.32753 -42.57225,33.4669 -69.50776,41.97242 -22.19984,7.01011 -51.35538,9.9813 -75.37239,7.68108 z M 31.766299,290.62209 C 14.395259,263.97255 5.6188412,237.73641 1.3815314,199.79015 -0.0176432,187.26015 0.4837454,180.09314 4.5586735,154.375 9.6374984,122.32096 27.891686,85.238616 49.825812,62.417381 c 9.341907,-9.719732 10.176232,-9.956543 21.563404,-6.120482 13.828359,4.658436 28.595941,14.857457 51.498364,35.56661 l 13.36254,12.082871 -7.2969,8.96431 C 95.080774,154.52332 59.323551,213.50779 45.847741,250 c -7.32599,19.83862 -10.280842,39.75281 -7.12868,48.04363 2.128174,5.59752 0.173385,3.51093 -6.952762,-7.42154 z m 304.915431,4.53255 c 1.71605,-8.37719 -0.4544,-23.76257 -5.5413,-39.28002 C 320.12376,222.26864 283.30079,159.75041 249.4876,117.24408 L 238.84328,103.86316 250.35914,93.289071 C 265.39545,79.482434 275.83517,71.215236 287.0994,64.194558 295.98821,58.654402 308.69049,53.75 314.15053,53.75 c 3.36626,0 15.21723,12.298726 24.78421,25.720611 14.81725,20.787709 25.71782,45.986979 31.24045,72.219689 3.56833,16.9498 3.8657,53.23126 0.57486,70.13935 -2.70068,13.87582 -8.40314,31.87484 -13.9661,44.08195 -4.16823,9.14657 -14.53521,26.91044 -19.0783,32.69074 -2.33569,2.97175 -2.33761,2.96527 -1.02393,-3.4477 z M 171.36546,47.404099 c -15.60147,-7.922671 -39.6696,-16.427164 -52.96493,-18.715209 -4.66097,-0.802124 -12.61193,-1.249474 -17.6688,-0.994114 -10.969609,0.55394 -10.479658,-0.0197 7.11783,-8.333665 C 122.47979,12.44903 134.68342,8.3844145 151.25,4.9058925 c 18.6362,-3.91308583 53.66559,-3.95900844 72.00507,-0.094397 19.80818,4.1741058 43.13297,12.8540855 56.27624,20.9423865 l 3.90633,2.403927 -8.96247,-0.452584 c -17.81003,-0.899366 -43.76576,6.295879 -71.6327,19.857459 -8.40538,4.090523 -15.71788,7.357511 -16.25,7.25997 -0.53211,-0.09754 -7.38426,-3.43589 -15.22701,-7.418555 z"
       id="path4148"
       inkscape:connector-curvature="0" />
  </g>
</svg>
